<svg xmlns="http://www.w3.org/2000/svg" width="300pt" height="297pt"
     viewBox="0 0 300 297" preserveAspectRatio="xMidYMid meet">
  <g transform="translate(0,297) scale(0.1,-0.1)" stroke="none">

    <!-- Outer Hexagon -->
    <path fill="#2563EB"
          d="M 1345 2822 C 1323 2812 1244 2767 1170 2723 C 1096 2679 884 2554 700 2445 C 516 2336 343.109 2237 325.109 2223 C 243.013 2173.374 245 2095 245 2095 L 245 1490 C 245 1490 231.213 1098.667 261.804 909.875 C 266.588 880.348 279.243 828.878 279.243 828.878 C 313.243 767.878 338 746 481 665 L 581 607 L 580 396 C 580 280 579 180 580 174 C 581 141 623 155 803 250 C 907 305 997 350 1002 350 C 1006 350 1034 335 1063 316 C 1309 158 1365 131 1437 130 C 1503 130 1509 133 1725 261 C 2281 590 2528 743 2557 776 C 2620 847 2620 842 2620 1490 C 2620 2142 2621 2136 2554 2203 C 2535 2222 2310.285 2375.457 2034.285 2539.457 C 2034.285 2539.457 1698.628 2745.907 1523.446 2818.198 C 1500.007 2827.87 1455.715 2839.429 1455.715 2839.429 C 1377.711 2842.858 1374 2836 1345 2822 Z"/>

    <!-- Inner Hexagon -->
    <path fill="#ffffff"
          d="M 1368 2475 C 1333 2462 1268 2427 1152 2357 C 1126 2342 1096 2325 1085 2320 C 1074 2314 1052 2301 1035 2290 C 1001 2268 896 2209 831 2174 C 806 2161 779 2144 771 2136 C 762 2129 731 2110 702 2095 C 673 2079 634 2049 615 2029 C 555 1962 553 1943 555 1460 C 557 976 554 998 627 929 C 662 896 730 852 790 822 C 815 810 833 800 880 768 C 894 759 933 737 965 719 C 998 701 1043 675 1065 661 C 1087 647 1119 629 1135 620 C 1178 597 1233 565 1277 537 C 1376 476 1454 466 1535 503 C 1563 516 1680 582 1795 650 C 1911 718 2014 779 2025 785 C 2036 791 2063 807 2085 822 C 2108 836 2150 860 2179 875 C 2207 890 2245 919 2261 939 C 2319 1007 2320 1015 2320 1491 C 2320 1491 2332.635 1939.355 2300.365 1979 C 2249.922 2040.971 2230 2066 2115 2131 C 2077 2153 2038 2175 2030 2180 C 1973 2216 1763.254 2333.237 1756.254 2340.237 C 1735.254 2361.237 1550 2460 1510 2473 C 1463 2488 1405 2489 1368 2475 Z"/>

    <!-- Play Button -->
    <path fill="#2563EB"
          d="M 1233 1878 C 1160.707 1902.86 1160 1831 1160 1831 L 1160 1495 C 1160 1162 1163 1128 1194 1108 C 1225 1087 1271 1108 1535 1264 C 1687 1355 1818 1434 1826 1441 C 1846 1457 1844 1514 1823 1532 C 1790 1560 1254.145 1870.729 1233 1878 Z"/>

  </g>
</svg>
